<svg width="139" height="139" viewBox="0 0 139 139" fill="none" xmlns="http://www.w3.org/2000/svg">
<g clip-path="url(#clip0_558_1088)">
<path d="M47.9443 9.96009L44.3281 4.68434L45.1526 4.41959L47.3672 7.64347C47.4594 7.7807 47.5499 7.92599 47.642 8.08097C47.7326 8.23595 47.836 8.41675 47.9508 8.62339C47.9233 8.37155 47.9071 8.16007 47.9023 7.98895C47.8974 7.81783 47.8926 7.64832 47.8845 7.47881L47.8425 3.55752L48.6993 3.28308L50.9462 6.49566C51.0449 6.63611 51.1419 6.78302 51.2388 6.93638C51.3358 7.08975 51.4409 7.26571 51.5525 7.46751C51.5266 7.20275 51.5072 6.9832 51.4959 6.80885C51.4846 6.6345 51.4765 6.47629 51.4732 6.33584L51.3973 2.41616L52.2055 2.15625L52.3235 8.55559L51.5638 8.79936L48.6637 4.63753L48.7203 9.71148L47.9443 9.96009Z" fill="black"/>
<path d="M59.4282 7.00111L55.7538 7.70982L54.5898 1.69308L58.2642 0.984375L58.4097 1.73344L55.1766 2.35658L55.4886 1.95945L55.9154 4.16467L58.4906 3.66745L58.6312 4.39068L56.056 4.88791L56.4909 7.1351L56.0496 6.8655L59.2827 6.24236L59.4298 6.9995L59.4282 7.00111Z" fill="black"/>
<path d="M61.7027 0.539062L62.3315 6.6349L61.5038 6.72046L60.875 0.624624L61.7027 0.539062ZM61.6477 6.70432L61.5685 5.9375L64.9374 5.59041L65.0166 6.35723L61.6477 6.70432Z" fill="black"/>
<path d="M69.0539 6.32402C68.4703 6.3337 67.9595 6.21101 67.5198 5.95433C67.0801 5.69926 66.7341 5.33764 66.4836 4.86947C66.233 4.40131 66.1021 3.85081 66.0924 3.21798C66.0827 2.58515 66.1974 2.02981 66.4383 1.55034C66.6792 1.07249 67.0203 0.696342 67.46 0.423514C67.8997 0.150687 68.4121 0.0102368 68.9941 0.000550655C69.458 -0.00752117 69.8783 0.0731971 70.2533 0.239477C70.63 0.405756 70.9452 0.643068 71.199 0.948183C71.4528 1.25491 71.6193 1.61653 71.7001 2.03304L70.8094 2.04756C70.6898 1.64882 70.4667 1.33886 70.1402 1.11769C69.8136 0.896523 69.4273 0.789975 68.9811 0.798047C68.5689 0.804504 68.2084 0.907823 67.9045 1.108C67.599 1.30819 67.3646 1.58586 67.2013 1.94102C67.038 2.29618 66.9588 2.7143 66.9669 3.19538C66.975 3.67 67.0655 4.08328 67.2417 4.43682C67.4163 4.79037 67.662 5.06158 67.9756 5.25208C68.2892 5.44257 68.6514 5.53298 69.0587 5.52652C69.5114 5.51845 69.9009 5.4006 70.2291 5.17297C70.5556 4.94373 70.7739 4.64023 70.8806 4.25924L71.7632 4.24471C71.6856 4.65315 71.5191 5.01154 71.2669 5.3215C71.0147 5.63145 70.6979 5.87361 70.3196 6.04957C69.9397 6.22554 69.5194 6.31756 69.0555 6.32402H69.0539Z" fill="black"/>
<path d="M79.4763 3.82378C79.4116 4.44208 79.229 4.97482 78.9299 5.42362C78.6308 5.87241 78.2445 6.20659 77.7757 6.42775C77.3053 6.64892 76.7815 6.72964 76.2012 6.66829C75.6322 6.60856 75.1423 6.42291 74.7285 6.10972C74.3147 5.79654 74.0091 5.39133 73.8103 4.89411C73.6115 4.39688 73.5452 3.83508 73.6099 3.21194C73.6745 2.59364 73.8572 2.06251 74.1563 1.61533C74.4553 1.16977 74.8401 0.83398 75.3072 0.609584C75.7744 0.385187 76.2949 0.302854 76.8688 0.362586C77.4475 0.422317 77.9438 0.611198 78.3544 0.925999C78.765 1.2408 79.0705 1.64762 79.2726 2.14646C79.4731 2.64368 79.5426 3.20225 79.4779 3.82055L79.4763 3.82378ZM78.6066 3.73338C78.6567 3.26198 78.6131 2.83902 78.4789 2.46772C78.3447 2.09641 78.1329 1.79614 77.8436 1.57013C77.5542 1.34412 77.2018 1.20851 76.7847 1.16654C76.3741 1.12457 76.004 1.18268 75.6742 1.34412C75.3444 1.50556 75.0744 1.75417 74.8659 2.09157C74.6574 2.42736 74.5281 2.83256 74.4796 3.30396C74.4294 3.77535 74.4731 4.19832 74.6073 4.56962C74.7414 4.94092 74.9532 5.24281 75.2426 5.47043C75.5319 5.69967 75.8811 5.83528 76.2917 5.87725C76.7088 5.92084 77.0806 5.85788 77.412 5.6916C77.7417 5.52371 78.0117 5.27187 78.2202 4.93608C78.4288 4.60029 78.5581 4.19832 78.6066 3.73176V3.73338Z" fill="black"/>
<path d="M81.8289 7.37109L81.0352 7.18867L82.4157 1.21875L83.2094 1.40117L84.1066 6.89647L87.3267 2.35042L88.1366 2.53769L86.7561 8.5076L85.9624 8.32518L86.5088 5.96337C86.5734 5.68247 86.6284 5.44354 86.6753 5.24497C86.7205 5.04641 86.7626 4.8769 86.8014 4.73484C86.8402 4.59277 86.8757 4.46685 86.9064 4.35385C86.9388 4.24245 86.9711 4.13591 87.0067 4.03259L84.2666 7.93289L83.5052 7.75693L82.76 3.07043C82.7487 3.21895 82.7131 3.44173 82.6533 3.742C82.5935 4.04227 82.5143 4.40066 82.4173 4.81878L81.8273 7.37109H81.8289Z" fill="black"/>
<path d="M92.4622 10.4489L88.9316 9.21073L90.9652 3.42969L94.4958 4.66952L94.242 5.38953L91.135 4.29983L91.6054 4.11418L90.8602 6.23384L93.3351 7.10237L93.091 7.79816L90.6177 6.92963L89.8579 9.08804L89.6122 8.6344L92.7192 9.72409L92.4638 10.4522L92.4622 10.4489Z" fill="black"/>
<path d="M101.871 8.46005L99.2098 13.555L98.4727 13.1708L101.133 8.07583L101.871 8.46005ZM99.3165 7.55923L99.6689 6.88281L103.68 8.9718L103.327 9.64822L99.3165 7.55923Z" fill="black"/>
<path d="M108.441 15.6105C108.1 16.1303 107.692 16.521 107.22 16.7825C106.748 17.0441 106.252 17.1651 105.733 17.1458C105.214 17.1264 104.711 16.9585 104.223 16.6389C103.745 16.3257 103.394 15.935 103.171 15.4684C102.946 15.0003 102.86 14.4998 102.914 13.9671C102.966 13.4343 103.164 12.9048 103.509 12.3802C103.85 11.8603 104.256 11.4713 104.728 11.2114C105.2 10.9531 105.693 10.8304 106.212 10.8449C106.729 10.8594 107.23 11.0257 107.712 11.3421C108.198 11.6618 108.552 12.0557 108.772 12.5238C108.992 12.992 109.078 13.4941 109.028 14.0284C108.977 14.5628 108.782 15.0907 108.441 15.6105ZM107.71 15.131C107.97 14.7339 108.127 14.34 108.177 13.9477C108.229 13.5554 108.177 13.1922 108.024 12.8596C107.87 12.5271 107.62 12.2446 107.269 12.0153C106.923 11.7893 106.567 11.6731 106.2 11.665C105.833 11.6569 105.479 11.7554 105.14 11.9588C104.8 12.1622 104.5 12.4625 104.239 12.8596C103.979 13.2568 103.822 13.6507 103.772 14.043C103.72 14.4353 103.772 14.7985 103.923 15.1343C104.074 15.4701 104.322 15.751 104.668 15.977C105.019 16.2062 105.377 16.3224 105.749 16.3257C106.119 16.3289 106.475 16.2288 106.815 16.0254C107.154 15.822 107.453 15.5249 107.71 15.1327V15.131Z" fill="black"/>
<path d="M110.996 21.5796L110.357 20.9952L116.153 17.9844L116.835 18.6075L114.352 24.6436L113.707 24.0544L114.331 22.5563L112.428 20.8176L110.996 21.5763V21.5796ZM115.522 19.2016L113.104 20.4608L114.638 21.8621L115.673 19.3388C115.702 19.2823 115.731 19.221 115.758 19.158C115.786 19.0951 115.812 19.045 115.839 19.0079C115.8 19.0337 115.752 19.0644 115.697 19.1015C115.64 19.1386 115.582 19.1709 115.524 19.2016H115.522Z" fill="black"/>
<path d="M118.22 28.9123L117.703 28.2617L122.504 24.4453L123.022 25.0959L121.135 30.8947L120.993 30.7155L124.978 27.5481L125.495 28.1987L120.694 32.0151L120.176 31.3645L122.063 25.5657L122.205 25.7449L118.22 28.9123Z" fill="black"/>
<path d="M124.028 37.048L122.006 33.9032L127.169 30.5938L129.191 33.7385L128.548 34.1502L126.77 31.3832L127.255 31.5252L125.362 32.7392L126.778 34.9428L126.157 35.3416L124.741 33.138L122.813 34.3746L122.9 33.8661L124.678 36.6331L124.028 37.0496V37.048Z" fill="black"/>
<path d="M125.652 39.9041L130.379 35.5938L130.755 36.3719L127.867 39.0114C127.744 39.1211 127.611 39.2325 127.472 39.3439C127.332 39.4553 127.167 39.5828 126.978 39.7249C127.223 39.6619 127.432 39.6167 127.6 39.5893C127.768 39.5619 127.936 39.5312 128.104 39.5005L131.987 38.9129L132.38 39.7217L129.507 42.3918C129.381 42.5097 129.25 42.6259 129.111 42.7438C128.974 42.8616 128.812 42.9892 128.628 43.128C128.887 43.065 129.102 43.0166 129.273 42.9811C129.444 42.9456 129.6 42.9165 129.739 42.8923L133.615 42.2708L133.985 43.0344L127.657 44.0417L127.309 43.3249L131.03 39.8767L126.006 40.6386L125.65 39.9057L125.652 39.9041Z" fill="black"/>
<path d="M131.067 53.9821L130.037 50.3885L135.936 48.7031L136.966 52.2967L136.232 52.5066L135.325 49.3456L135.748 49.6217L133.585 50.24L134.306 52.7584L133.597 52.9618L132.876 50.4434L130.672 51.073L130.902 50.6113L131.809 53.7722L131.067 53.9837V53.9821Z" fill="black"/>
<path d="M131.697 56.8211L131.547 56.0043L137.581 54.8984L138 57.1747C138.118 57.8188 138.052 58.3532 137.798 58.7761C137.544 59.1991 137.135 59.4622 136.566 59.5656C136.149 59.6414 135.777 59.6059 135.451 59.4558C135.124 59.3057 134.866 59.0554 134.675 58.7067L132.354 60.3986L132.187 59.4897L134.368 57.927L134.085 56.3853L131.697 56.8228V56.8211ZM136.998 55.8493L134.811 56.2497L135.081 57.7171C135.15 58.0949 135.302 58.3709 135.535 58.5437C135.768 58.7164 136.057 58.7713 136.401 58.7083C136.752 58.6438 137.001 58.4872 137.148 58.2402C137.295 57.9916 137.334 57.6816 137.266 57.3087L136.998 55.8493Z" fill="black"/>
<path d="M132.611 62.5808L132.541 61.7188L138.836 63.4606L138.91 64.3808L132.973 67.1091L132.903 66.239L134.382 65.5674L134.177 62.9989L132.611 62.5792V62.5808ZM137.546 63.9207L134.916 63.1959L135.082 65.2655L137.562 64.1242C137.623 64.1016 137.685 64.0773 137.748 64.0499C137.811 64.0224 137.864 64.0031 137.91 63.995C137.863 63.9869 137.808 63.9772 137.741 63.9659C137.675 63.9546 137.61 63.9401 137.546 63.9224V63.9207Z" fill="black"/>
<path d="M135.591 77.7859C134.97 77.7374 134.432 77.5679 133.974 77.279C133.517 76.99 133.173 76.6138 132.94 76.1505C132.707 75.6872 132.613 75.1658 132.66 74.5846C132.705 74.0163 132.88 73.5207 133.182 73.0994C133.485 72.678 133.884 72.3632 134.377 72.1534C134.87 71.9435 135.431 71.8628 136.057 71.9128C136.677 71.9612 137.214 72.1308 137.668 72.4181C138.122 72.7055 138.467 73.08 138.703 73.5417C138.939 74.0018 139.034 74.52 138.987 75.0947C138.94 75.6743 138.766 76.1731 138.46 76.5912C138.155 77.0094 137.755 77.3242 137.261 77.5373C136.768 77.7504 136.21 77.8327 135.589 77.7826L135.591 77.7859ZM135.66 76.9157C136.134 76.9529 136.556 76.8996 136.925 76.7559C137.293 76.6122 137.587 76.3927 137.807 76.0989C138.027 75.805 138.153 75.4483 138.186 75.0318C138.218 74.6201 138.15 74.252 137.98 73.9275C137.81 73.6031 137.555 73.3399 137.212 73.1397C136.871 72.9396 136.462 72.8217 135.989 72.783C135.515 72.7442 135.093 72.7991 134.724 72.9428C134.356 73.0865 134.06 73.306 133.839 73.5998C133.617 73.8936 133.489 74.2472 133.457 74.6572C133.423 75.0737 133.496 75.445 133.671 75.7711C133.847 76.0972 134.105 76.3588 134.446 76.559C134.788 76.7591 135.193 76.877 135.66 76.9141V76.9157Z" fill="black"/>
<path d="M138.097 81.3712L132.062 80.2622L132.213 79.4453L138.247 80.5544L138.097 81.3712ZM134.188 83.1002L134.767 79.9571L135.511 80.0943L134.932 83.2375L134.19 83.1002H134.188ZM136.826 84.0511L137.486 80.4753L138.238 80.6141L137.578 84.1899L136.826 84.0527V84.0511Z" fill="black"/>
<path d="M129.33 90.4236C129.522 89.8747 129.813 89.4372 130.205 89.1127C130.596 88.7882 131.055 88.5881 131.582 88.5138C132.107 88.4395 132.67 88.5057 133.27 88.714C133.868 88.9222 134.351 89.2209 134.718 89.6132C135.085 90.0039 135.321 90.4526 135.426 90.9579C135.531 91.4649 135.488 91.9928 135.297 92.5416C135.145 92.9791 134.925 93.3456 134.639 93.641C134.353 93.9364 134.023 94.1512 133.646 94.2835C133.271 94.4159 132.874 94.4482 132.453 94.3804L132.746 93.5393C133.163 93.5651 133.53 93.4618 133.85 93.2326C134.17 93.0033 134.403 92.6772 134.55 92.2559C134.686 91.8668 134.712 91.4939 134.629 91.1388C134.547 90.7836 134.366 90.4688 134.088 90.1927C133.81 89.9167 133.443 89.6987 132.99 89.5421C132.541 89.3855 132.12 89.329 131.727 89.3726C131.335 89.4162 130.995 89.5518 130.709 89.7811C130.423 90.0103 130.211 90.317 130.079 90.7013C129.93 91.1274 129.906 91.5343 130.009 91.9201C130.111 92.3059 130.323 92.6143 130.643 92.8451L130.352 93.6781C129.994 93.465 129.715 93.1858 129.511 92.8435C129.307 92.4997 129.188 92.1203 129.154 91.7054C129.12 91.2889 129.178 90.8627 129.33 90.4252V90.4236Z" fill="black"/>
<path d="M127.747 94.7892L128.116 94.0078L132.715 98.641L132.32 99.4773L125.811 98.901L126.182 98.1115L127.799 98.2633L128.897 95.9321L127.746 94.7924L127.747 94.7892ZM131.365 98.3989L129.443 96.4649L128.557 98.344L131.278 98.5829C131.341 98.5942 131.407 98.6023 131.475 98.6104C131.543 98.6184 131.599 98.6281 131.643 98.6427C131.607 98.6136 131.562 98.5765 131.512 98.5345C131.46 98.4909 131.412 98.4457 131.365 98.3989Z" fill="black"/>
<path d="M124.56 101.071L124.988 100.359L130.245 103.519L129.051 105.501C128.713 106.063 128.309 106.418 127.838 106.568C127.368 106.718 126.886 106.644 126.392 106.347C126.028 106.129 125.774 105.855 125.629 105.527C125.483 105.199 125.454 104.841 125.543 104.452L122.682 104.187L123.159 103.396L125.829 103.666L126.639 102.322L124.56 101.073V101.071ZM129.177 103.846L127.271 102.702L126.502 103.98C126.303 104.31 126.233 104.616 126.295 104.899C126.354 105.183 126.535 105.414 126.836 105.595C127.142 105.779 127.431 105.826 127.706 105.737C127.981 105.648 128.215 105.441 128.411 105.117L129.177 103.846Z" fill="black"/>
<path d="M119.338 108.8L121.567 105.797L126.496 109.447L124.267 112.45L123.654 111.994L125.615 109.353L125.654 109.857L123.848 108.519L122.285 110.622L121.692 110.183L123.253 108.08L121.414 106.717L121.921 106.617L119.96 109.258L119.34 108.798L119.338 108.8Z" fill="black"/>
<path d="M116.757 118.718L117.294 118.485L117.47 118.923L116.964 119.15C116.817 119.217 116.693 119.267 116.586 119.299C116.481 119.331 116.376 119.354 116.271 119.365C116.361 119.428 116.448 119.496 116.534 119.567C116.62 119.638 116.712 119.727 116.812 119.835L117.211 120.263L116.864 120.586L116.465 120.158C116.364 120.05 116.28 119.95 116.214 119.858C116.148 119.766 116.088 119.674 116.035 119.585C116.007 119.688 115.975 119.79 115.939 119.893C115.904 119.996 115.849 120.116 115.776 120.253L115.512 120.754L115.076 120.547L115.352 120.022C115.417 119.893 115.483 119.78 115.553 119.685C115.622 119.59 115.689 119.504 115.752 119.431C115.635 119.439 115.524 119.438 115.419 119.428C115.314 119.418 115.188 119.393 115.04 119.352L114.475 119.23L114.575 118.765L115.136 118.881C115.286 118.91 115.415 118.945 115.522 118.984C115.629 119.025 115.727 119.063 115.818 119.102C115.778 119.008 115.74 118.907 115.708 118.799C115.676 118.689 115.65 118.563 115.632 118.418L115.563 117.846L116.039 117.773L116.122 118.347C116.144 118.503 116.156 118.636 116.156 118.744C116.156 118.852 116.149 118.962 116.138 119.073C116.241 119 116.338 118.936 116.434 118.879C116.528 118.823 116.636 118.768 116.757 118.716V118.718Z" fill="black"/>
<path d="M110.481 124.045L111.041 123.879L111.164 124.336L110.634 124.502C110.481 124.551 110.35 124.585 110.241 124.604C110.133 124.623 110.026 124.633 109.921 124.633C110.002 124.706 110.081 124.783 110.159 124.864C110.235 124.945 110.317 125.045 110.403 125.162L110.747 125.635L110.362 125.915L110.018 125.442C109.931 125.322 109.861 125.214 109.805 125.114C109.75 125.014 109.701 124.917 109.659 124.822C109.619 124.92 109.575 125.019 109.528 125.117C109.48 125.214 109.412 125.327 109.323 125.455L109.001 125.92L108.592 125.661L108.93 125.174C109.009 125.053 109.09 124.949 109.171 124.862C109.252 124.775 109.328 124.699 109.399 124.635C109.283 124.628 109.173 124.614 109.069 124.593C108.966 124.57 108.843 124.53 108.702 124.472L108.154 124.283L108.309 123.834L108.853 124.016C109 124.063 109.123 124.113 109.224 124.165C109.326 124.216 109.418 124.268 109.504 124.318C109.475 124.22 109.451 124.116 109.431 124.003C109.412 123.89 109.402 123.763 109.401 123.616V123.04L109.882 123.023L109.895 123.601C109.899 123.76 109.895 123.892 109.881 124C109.866 124.108 109.848 124.215 109.824 124.325C109.934 124.265 110.041 124.213 110.141 124.168C110.241 124.123 110.354 124.082 110.482 124.045H110.481Z" fill="black"/>
<path d="M103.605 128.574L104.182 128.475L104.248 128.943L103.702 129.044C103.543 129.074 103.409 129.092 103.299 129.098C103.189 129.105 103.083 129.102 102.978 129.089C103.05 129.171 103.12 129.257 103.184 129.347C103.251 129.436 103.319 129.546 103.391 129.673L103.678 130.183L103.262 130.414L102.976 129.904C102.905 129.776 102.847 129.659 102.805 129.554C102.763 129.449 102.725 129.345 102.696 129.245C102.645 129.339 102.59 129.431 102.53 129.523C102.47 129.613 102.389 129.718 102.286 129.833L101.909 130.256L101.534 129.951L101.928 129.508C102.022 129.399 102.114 129.305 102.205 129.229C102.295 129.153 102.379 129.087 102.459 129.029C102.344 129.01 102.236 128.982 102.135 128.947C102.035 128.911 101.919 128.858 101.786 128.782L101.266 128.529L101.474 128.102L101.99 128.348C102.129 128.412 102.247 128.477 102.341 128.54C102.434 128.604 102.522 128.666 102.599 128.726C102.581 128.625 102.57 128.519 102.565 128.404C102.56 128.291 102.565 128.162 102.581 128.017L102.651 127.445L103.131 127.487L103.073 128.064C103.057 128.22 103.037 128.353 103.011 128.458C102.986 128.562 102.953 128.667 102.916 128.772C103.033 128.727 103.144 128.687 103.249 128.654C103.354 128.622 103.472 128.595 103.603 128.574H103.605Z" fill="black"/>
<path d="M93.3933 128.258L97.2035 133.395L96.3904 133.69L94.0561 130.552C93.9591 130.418 93.8621 130.276 93.7651 130.126C93.6681 129.974 93.5582 129.798 93.4369 129.596C93.4741 129.846 93.4984 130.058 93.5097 130.229C93.521 130.398 93.5323 130.57 93.5469 130.739L93.7344 134.657L92.8889 134.964L90.5239 131.837C90.4205 131.7 90.317 131.558 90.2135 131.407C90.1117 131.259 90.0002 131.085 89.8805 130.888C89.9161 131.151 89.9436 131.37 89.9614 131.543C89.9791 131.717 89.9937 131.874 90.0018 132.014L90.2249 135.928L89.4279 136.217L89.0723 129.827L89.8223 129.556L92.876 133.606L92.6303 128.537L93.3965 128.259L93.3933 128.258Z" fill="black"/>
<path d="M82.0312 131.641L85.6766 130.797L87.0635 136.765L83.4182 137.609L83.2453 136.867L86.4525 136.123L86.1551 136.531L85.6458 134.344L83.0917 134.936L82.9252 134.218L85.4793 133.625L84.962 131.396L85.4131 131.648L82.2058 132.39L82.0312 131.64V131.641Z" fill="black"/>
<path d="M79.8218 132.029L79.9301 132.792L76.5774 133.264L76.4707 132.5L79.8234 132.029H79.8218ZM79.9948 138.192L79.1412 132.124L79.9641 132.008L80.8176 138.076L79.9932 138.192H79.9948Z" fill="black"/>
<path d="M72.4474 132.676C73.0294 132.649 73.545 132.757 73.9912 132.999C74.4374 133.241 74.7946 133.593 75.0597 134.053C75.3248 134.513 75.4719 135.059 75.501 135.692C75.5301 136.325 75.4315 136.883 75.2052 137.369C74.9789 137.855 74.6491 138.241 74.2175 138.526C73.7859 138.812 73.2799 138.969 72.698 138.996C72.234 139.017 71.8121 138.951 71.4306 138.796C71.0491 138.641 70.7274 138.413 70.4639 138.115C70.2004 137.816 70.0226 137.459 69.9304 137.045L70.8212 137.003C70.9537 137.398 71.1849 137.702 71.5179 137.911C71.8509 138.123 72.2405 138.218 72.6867 138.197C73.0989 138.178 73.4545 138.063 73.7536 137.855C74.0526 137.647 74.2789 137.361 74.4325 137.001C74.5861 136.641 74.6507 136.22 74.6281 135.74C74.6055 135.265 74.502 134.855 74.3161 134.507C74.1302 134.16 73.8764 133.895 73.5563 133.714C73.2363 133.533 72.8726 133.453 72.4668 133.472C72.0142 133.493 71.6278 133.622 71.3077 133.861C70.9877 134.1 70.7791 134.41 70.6838 134.794L69.8027 134.834C69.869 134.424 70.0226 134.061 70.2667 133.745C70.5092 133.428 70.8179 133.176 71.1913 132.989C71.5648 132.802 71.9835 132.699 72.4474 132.676Z" fill="black"/>
<path d="M62.112 135.558C62.1541 134.938 62.3157 134.397 62.6002 133.939C62.8831 133.479 63.2549 133.13 63.7172 132.893C64.178 132.655 64.7001 132.555 65.2804 132.594C65.8511 132.633 66.349 132.801 66.7741 133.098C67.1993 133.395 67.5194 133.789 67.736 134.279C67.9526 134.77 68.0399 135.327 67.9979 135.954C67.9558 136.573 67.7942 137.113 67.5113 137.568C67.2284 138.023 66.8582 138.373 66.3991 138.614C65.94 138.855 65.4227 138.956 64.8472 138.918C64.2653 138.879 63.7641 138.709 63.3422 138.409C62.9203 138.109 62.6002 137.713 62.3804 137.224C62.1605 136.733 62.0716 136.178 62.1136 135.558H62.112ZM62.985 135.616C62.9526 136.089 63.0108 136.51 63.1595 136.877C63.3083 137.243 63.5313 137.536 63.8272 137.75C64.1246 137.965 64.4819 138.088 64.9006 138.115C65.3128 138.143 65.6813 138.07 66.0047 137.896C66.328 137.721 66.5882 137.463 66.7838 137.119C66.9794 136.775 67.0942 136.367 67.1265 135.894C67.1589 135.421 67.1007 134.999 66.9519 134.633C66.8032 134.267 66.5818 133.974 66.2843 133.756C65.9869 133.538 65.6328 133.416 65.2206 133.388C64.8036 133.361 64.4318 133.435 64.1084 133.616C63.7851 133.795 63.5249 134.057 63.3277 134.401C63.1321 134.744 63.0173 135.15 62.9866 135.618L62.985 135.616Z" fill="black"/>
<path d="M59.627 132.093L60.4272 132.246L59.2698 138.265L58.4696 138.111L57.3671 132.653L54.3183 137.316L53.502 137.159L54.6594 131.141L55.4596 131.294L55.0021 133.675C54.9471 133.958 54.9019 134.2 54.8631 134.4C54.8243 134.6 54.7887 134.771 54.7548 134.915C54.7208 135.059 54.6917 135.186 54.6642 135.299C54.6368 135.412 54.6077 135.52 54.5753 135.624L57.1683 131.625L57.9345 131.772L58.8543 136.428C58.8592 136.279 58.8867 136.055 58.9368 135.753C58.9853 135.451 59.0515 135.089 59.1324 134.668L59.627 132.096V132.093Z" fill="black"/>
<path d="M48.8896 129.422L52.4654 130.528L50.6484 136.381L47.0742 135.276L47.3005 134.547L50.4463 135.521L49.984 135.724L50.65 133.579L48.1444 132.804L48.3626 132.1L50.8682 132.875L51.5472 130.689L51.8091 131.133L48.6633 130.16L48.8912 129.423L48.8896 129.422Z" fill="black"/>
<path d="M42.1472 132.557L41.819 133.246L37.7324 131.307L38.0606 130.618L42.1472 132.557ZM39.5607 131.753L42.0292 126.562L42.7809 126.919L40.3124 132.109L39.5607 131.753Z" fill="black"/>
<path d="M32.7253 124.852C33.047 124.32 33.4398 123.915 33.9021 123.637C34.3645 123.358 34.8559 123.219 35.3748 123.219C35.8937 123.219 36.4029 123.369 36.9024 123.669C37.3922 123.965 37.756 124.341 37.9984 124.801C38.2393 125.259 38.3444 125.757 38.3104 126.292C38.2765 126.828 38.0987 127.363 37.7737 127.9C37.4521 128.432 37.0609 128.837 36.5985 129.113C36.1378 129.389 35.648 129.529 35.1291 129.533C34.6102 129.537 34.1042 129.39 33.6112 129.092C33.1133 128.792 32.7447 128.411 32.5071 127.95C32.2694 127.49 32.166 126.992 32.1967 126.456C32.2274 125.92 32.4036 125.385 32.7253 124.852ZM33.4737 125.305C33.228 125.711 33.0874 126.11 33.0502 126.504C33.013 126.898 33.0777 127.258 33.2426 127.586C33.4075 127.913 33.6693 128.185 34.0282 128.401C34.3822 128.614 34.7427 128.717 35.1097 128.711C35.4766 128.704 35.8274 128.595 36.1588 128.378C36.4902 128.164 36.7796 127.852 37.0253 127.445C37.271 127.038 37.4116 126.64 37.4488 126.246C37.486 125.852 37.4213 125.49 37.2581 125.161C37.0948 124.831 36.8362 124.559 36.4821 124.346C36.1233 124.129 35.7595 124.026 35.3894 124.037C35.0192 124.049 34.6684 124.162 34.3354 124.376C34.004 124.591 33.7162 124.901 33.4737 125.301V125.305Z" fill="black"/>
<path d="M29.9602 118.99L30.6197 119.55L24.9392 122.771L24.2344 122.172L26.4927 116.047L27.1587 116.612L26.5897 118.131L28.5554 119.799L29.9586 118.987L29.9602 118.99ZM25.526 121.532L27.8975 120.186L26.3132 118.841L25.3724 121.402C25.3449 121.46 25.3191 121.521 25.2948 121.586C25.2706 121.65 25.2447 121.7 25.2205 121.739C25.2593 121.712 25.3045 121.679 25.3595 121.641C25.4144 121.602 25.471 121.566 25.5276 121.534L25.526 121.532Z" fill="black"/>
<path d="M22.4644 111.917L23.006 112.547L18.3487 116.536L17.8072 115.906L19.4787 110.041L19.6274 110.216L15.7622 113.527L15.2207 112.895L19.878 108.906L20.4195 109.537L18.748 115.402L18.5993 115.228L22.4644 111.917Z" fill="black"/>
<path d="M16.3633 104L18.5004 107.069L13.4632 110.567L11.3262 107.498L11.9534 107.062L13.8334 109.762L13.3436 109.637L15.1897 108.356L13.6928 106.205L14.299 105.784L15.7959 107.934L17.6776 106.628L17.6097 107.14L15.7296 104.441L16.3633 104Z" fill="black"/>
<path d="M14.6343 101.213L10.0708 105.696L9.66502 104.933L12.4536 102.188C12.5716 102.074 12.6993 101.959 12.8367 101.841C12.9725 101.725 13.1325 101.591 13.3168 101.442C13.0727 101.513 12.8674 101.567 12.6993 101.602C12.5311 101.636 12.3646 101.672 12.1981 101.709L8.33945 102.44L7.91754 101.646L10.6899 98.8707C10.8111 98.7496 10.9389 98.6269 11.0714 98.5059C11.2056 98.3832 11.3608 98.2492 11.5402 98.1039C11.2848 98.1765 11.0714 98.233 10.9001 98.275C10.7287 98.317 10.5767 98.3525 10.4377 98.3815L6.58712 99.1468L6.18945 98.3977L12.4762 97.1562L12.8496 97.8601L9.25927 101.444L14.2512 100.496L14.6327 101.215L14.6343 101.213Z" fill="black"/>
<path d="M8.69772 87.3454L9.86163 90.8986L4.02914 92.8035L2.86523 89.2503L3.59106 89.013L4.61433 92.1384L4.1811 91.8785L6.31817 91.1811L5.50343 88.6917L6.20501 88.4625L7.01975 90.9519L9.19723 90.2399L8.98546 90.7097L7.96219 87.5843L8.6961 87.3438L8.69772 87.3454Z" fill="black"/>
<path d="M7.96341 84.5265L8.14446 85.337L2.15517 86.6672L1.65243 84.4087C1.51017 83.7694 1.55705 83.2334 1.79468 82.8008C2.03231 82.3698 2.4316 82.0905 2.99577 81.9662C3.40961 81.8741 3.78303 81.8968 4.11442 82.034C4.44581 82.1712 4.71416 82.4117 4.91784 82.754L7.17453 80.9766L7.37499 81.879L5.25408 83.5224L5.59517 85.0528L7.96502 84.5265H7.96341ZM2.70318 85.6937L4.8742 85.2127L4.55089 83.7565C4.46683 83.382 4.30679 83.1124 4.06592 82.9477C3.82668 82.783 3.5357 82.7395 3.19299 82.8153C2.84543 82.8928 2.60295 83.0575 2.46393 83.3109C2.32652 83.5644 2.29904 83.876 2.38149 84.2457L2.70318 85.6937Z" fill="black"/>
<path d="M6.83537 78.809L6.93559 79.6679L0.580965 78.1584L0.472656 77.2415L6.30514 74.2969L6.40698 75.1638L4.95371 75.8886L5.25439 78.4474L6.83537 78.809ZM1.8548 77.6515L4.50916 78.2795L4.26668 76.2164L1.83055 77.4481C1.77074 77.4723 1.70931 77.4998 1.64788 77.5288C1.58645 77.5595 1.53311 77.5789 1.48784 77.5902C1.53472 77.5966 1.5913 77.6031 1.65758 77.6128C1.72386 77.6225 1.79014 77.6338 1.8548 77.6499V77.6515Z" fill="black"/>
<path d="M3.29863 63.7149C3.921 63.7407 4.46416 63.8908 4.93134 64.162C5.39852 64.4332 5.75739 64.7965 6.00634 65.2517C6.25529 65.707 6.36844 66.2236 6.34258 66.8064C6.31833 67.3762 6.16314 67.8767 5.8754 68.3093C5.58765 68.7404 5.2013 69.0713 4.71634 69.2989C4.23137 69.5266 3.67367 69.6283 3.04645 69.6008C2.42408 69.575 1.88092 69.4249 1.41697 69.1537C0.953027 68.8824 0.594154 68.5208 0.341974 68.0688C0.0897932 67.6168 -0.0249813 67.1034 -0.000733182 66.5271C0.023515 65.9459 0.181936 65.4406 0.471297 65.0112C0.760658 64.5818 1.14863 64.2524 1.63521 64.0216C2.12017 63.7907 2.67464 63.689 3.29701 63.7149H3.29863ZM3.26145 64.5866C2.78619 64.5672 2.3675 64.635 2.00378 64.7916C1.64006 64.9482 1.35393 65.1791 1.14701 65.481C0.938478 65.7829 0.82532 66.1429 0.807538 66.561C0.789756 66.9726 0.8722 67.3391 1.05325 67.6571C1.23431 67.9752 1.50103 68.2286 1.84859 68.4159C2.19776 68.6032 2.60998 68.7065 3.08363 68.7275C3.55889 68.7468 3.97758 68.679 4.3413 68.5224C4.70502 68.3658 4.99277 68.1366 5.20292 67.8331C5.41468 67.5312 5.52784 67.1744 5.54562 66.7612C5.56341 66.343 5.47935 65.975 5.29183 65.6553C5.10431 65.3357 4.83596 65.0838 4.4884 64.895C4.13923 64.7077 3.73025 64.6044 3.26145 64.5834V64.5866Z" fill="black"/>
<path d="M0.664546 60.2254L6.73628 61.1101L6.61665 61.9318L0.544922 61.0472L0.664546 60.2254ZM1.83492 57.5004L1.30955 61.0988L0.554621 60.989L1.08 57.3906L1.83492 57.5004ZM4.50707 58.3528L4.04474 61.5137L3.29789 61.4055L3.76022 58.2446L4.50707 58.3528Z" fill="black"/>
<path d="M9.08527 50.8586C8.91391 51.4156 8.6391 51.8627 8.25921 52.2018C7.87933 52.5408 7.42831 52.7571 6.90617 52.8507C6.38403 52.9444 5.81824 52.8992 5.21365 52.7135C4.60745 52.5279 4.1144 52.247 3.7329 51.8692C3.35139 51.4931 3.09921 51.0523 2.97474 50.5503C2.85026 50.0482 2.87451 49.5187 3.04587 48.9633C3.18166 48.521 3.38696 48.1465 3.66177 47.8398C3.93658 47.533 4.25827 47.307 4.63008 47.1617C5.00027 47.0148 5.39632 46.968 5.81824 47.0213L5.55636 47.872C5.13929 47.8623 4.77557 47.9786 4.46357 48.2191C4.1532 48.4613 3.93173 48.7955 3.80079 49.2216C3.67955 49.6156 3.66662 49.9885 3.76361 50.3404C3.85899 50.6923 4.05135 51.0007 4.34072 51.267C4.62846 51.5334 5.0035 51.7352 5.4626 51.8773C5.91684 52.0161 6.33876 52.0581 6.72997 52C7.12117 51.9418 7.45418 51.7933 7.73222 51.5544C8.01027 51.3139 8.2091 51.0007 8.32873 50.6116C8.46128 50.179 8.46937 49.7721 8.35297 49.3912C8.23658 49.0102 8.0135 48.7099 7.68373 48.4903L7.94237 47.6476C8.30609 47.8478 8.59707 48.1158 8.81369 48.4516C9.03031 48.7874 9.16448 49.1619 9.21459 49.5768C9.2647 49.9917 9.22106 50.4195 9.08527 50.8618V50.8586Z" fill="black"/>
<path d="M10.5051 46.4418L10.1656 47.2377L5.39844 42.7788L5.76054 41.9297L12.2865 42.2639L11.9438 43.0678L10.3224 42.9774L9.31209 45.3473L10.5051 46.4434V46.4418ZM6.75633 42.9677L8.74953 44.8275L9.56427 42.9177L6.83716 42.7805C6.7725 42.7724 6.70622 42.7643 6.63833 42.7611C6.57043 42.7562 6.51385 42.7482 6.4702 42.7353C6.50738 42.7627 6.55265 42.7982 6.60599 42.8386C6.65934 42.8789 6.70945 42.9225 6.75795 42.9677H6.75633Z" fill="black"/>
<path d="M13.4563 40.0365L13.0537 40.763L7.68359 37.799L8.80386 35.7746C9.1207 35.2015 9.5119 34.8302 9.97585 34.6639C10.4398 34.4976 10.9248 34.5525 11.4291 34.8318C11.8009 35.0368 12.0644 35.3 12.2228 35.6228C12.3813 35.9457 12.4217 36.3025 12.3473 36.6948L15.2167 36.8546L14.7689 37.6634L12.0903 37.4923L11.3305 38.8645L13.4547 40.0365H13.4563ZM8.7392 37.4341L10.6855 38.5077L11.4081 37.2017C11.594 36.8659 11.6522 36.5559 11.5811 36.275C11.5099 35.9941 11.3208 35.7681 11.0137 35.5986C10.7017 35.4259 10.4107 35.3904 10.1391 35.4888C9.86754 35.5873 9.64123 35.8036 9.45694 36.1346L8.7392 37.4325V37.4341Z" fill="black"/>
<path d="M18.3923 32.1239L16.2746 35.2057L11.2148 31.7381L13.3325 28.6562L13.963 29.0873L12.0991 31.7994L12.0425 31.2974L13.8967 32.5679L15.3807 30.4078L15.9901 30.8243L14.5061 32.9844L16.3959 34.2791L15.8931 34.3969L17.757 31.6848L18.3939 32.1207L18.3923 32.1239Z" fill="black"/>
<path d="M20.6022 22.1232L20.0752 22.375L19.8828 21.944L20.3807 21.697C20.5246 21.6244 20.6491 21.5711 20.7525 21.534C20.856 21.4984 20.961 21.4726 21.0645 21.4549C20.9724 21.3951 20.8818 21.3322 20.7945 21.2628C20.7073 21.1949 20.6103 21.1094 20.5068 21.0061L20.0913 20.5928L20.4276 20.257L20.843 20.6703C20.9465 20.7736 21.0338 20.8705 21.1049 20.9609C21.1744 21.0513 21.2375 21.1401 21.2941 21.2272C21.3183 21.1239 21.3458 21.019 21.3781 20.9157C21.4104 20.8123 21.4589 20.6897 21.5268 20.5492L21.7725 20.0391L22.2171 20.2296L21.9601 20.7639C21.9003 20.8963 21.8372 21.0109 21.7709 21.1094C21.7047 21.2079 21.6416 21.295 21.5818 21.3709C21.6982 21.3596 21.8081 21.3564 21.9148 21.3612C22.0215 21.3677 22.1476 21.3887 22.2963 21.4242L22.8669 21.5259L22.7829 21.9941L22.2187 21.8988C22.0668 21.8746 21.9358 21.8455 21.8291 21.81C21.7208 21.7745 21.6206 21.739 21.5285 21.7019C21.5721 21.7939 21.6125 21.894 21.6497 22.0005C21.6869 22.1071 21.716 22.2346 21.7402 22.3783L21.8307 22.9481L21.3571 23.0386L21.2536 22.4687C21.2262 22.3137 21.21 22.1813 21.2051 22.0732C21.2003 21.965 21.2035 21.8552 21.21 21.7438C21.1098 21.8197 21.0144 21.8875 20.9222 21.9472C20.8301 22.007 20.725 22.0651 20.6038 22.1216L20.6022 22.1232Z" fill="black"/>
<path d="M26.6818 16.5682L26.1273 16.7554L25.9883 16.305L26.512 16.1194C26.664 16.0645 26.7933 16.0257 26.9 16.0031C27.0083 15.9805 27.1134 15.966 27.2185 15.9628C27.1344 15.8918 27.052 15.8191 26.9728 15.74C26.8935 15.6625 26.8079 15.5657 26.7173 15.4494L26.3552 14.9893L26.7287 14.6955L27.0908 15.1556C27.1813 15.2718 27.2573 15.3784 27.3155 15.4753C27.3737 15.5721 27.427 15.669 27.4723 15.7626C27.5078 15.6625 27.5482 15.5624 27.5919 15.4623C27.6355 15.3622 27.7002 15.2476 27.7843 15.1169L28.0882 14.6406L28.5069 14.8828L28.1868 15.3816C28.1124 15.5059 28.0348 15.6125 27.9588 15.7013C27.8813 15.7901 27.8085 15.8692 27.7406 15.937C27.857 15.9386 27.9685 15.9499 28.072 15.9676C28.1771 15.987 28.2999 16.0225 28.4422 16.0758L28.9967 16.2437L28.8576 16.6973L28.3096 16.5359C28.1609 16.4939 28.0364 16.4487 27.933 16.4003C27.8295 16.3519 27.7341 16.305 27.6485 16.2582C27.6808 16.3551 27.7099 16.4584 27.7325 16.5698C27.7552 16.6812 27.7697 16.8103 27.7778 16.9556L27.7988 17.532L27.3171 17.5659L27.2831 16.9879C27.2734 16.8297 27.2734 16.6973 27.2831 16.5892C27.2912 16.481 27.3074 16.3728 27.3284 16.2631C27.2201 16.326 27.1166 16.3825 27.018 16.431C26.9194 16.4794 26.8079 16.5246 26.6818 16.5666V16.5682Z" fill="black"/>
<path d="M33.3829 11.783L32.8106 11.9024L32.7266 11.4375L33.2681 11.3164C33.4249 11.2809 33.5591 11.2583 33.6674 11.247C33.7773 11.2373 33.884 11.2357 33.9891 11.2454C33.9131 11.1647 33.842 11.0823 33.7725 10.9952C33.703 10.908 33.6302 10.8014 33.5542 10.6771L33.2503 10.1767L33.6561 9.92969L33.96 10.4301C34.036 10.5561 34.0974 10.6707 34.1443 10.774C34.1912 10.8773 34.2316 10.979 34.2639 11.0775C34.3124 10.9823 34.3641 10.8886 34.4191 10.795C34.474 10.7014 34.5516 10.5948 34.6519 10.4753L35.0124 10.0378L35.3987 10.33L35.0221 10.7869C34.9331 10.9015 34.8442 10.9984 34.7569 11.0775C34.6696 11.1566 34.5872 11.226 34.5112 11.2858C34.626 11.3019 34.7359 11.3245 34.8362 11.3552C34.938 11.3858 35.056 11.4359 35.1918 11.5069L35.722 11.741L35.5296 12.1753L35.0043 11.9493C34.862 11.8895 34.7424 11.8298 34.647 11.7701C34.55 11.7087 34.4611 11.6506 34.3819 11.5941C34.4029 11.6942 34.4175 11.8007 34.4272 11.9137C34.4369 12.0267 34.4352 12.1559 34.4256 12.3012L34.3771 12.8759L33.8953 12.8501L33.9309 12.2721C33.9406 12.1139 33.9568 11.9832 33.9778 11.8766C33.9988 11.7717 34.0279 11.6651 34.0618 11.5586C33.9471 11.6086 33.8371 11.6522 33.7337 11.6877C33.6302 11.7249 33.5138 11.7555 33.3829 11.7814V11.783Z" fill="black"/>
</g>
<defs>
<clipPath id="clip0_558_1088">
<rect width="139" height="139" fill="white"/>
</clipPath>
</defs>
</svg>
